<?xml version="1.0" encoding="UTF-8"?>
<svg width="97px" height="25px" viewBox="0 0 97 25" version="1.1" xmlns="http://www.w3.org/2000/svg" xmlns:xlink="http://www.w3.org/1999/xlink">
    <title>编组 3备份</title>
    <g id="页面-1" stroke="none" stroke-width="1" fill="none" fill-rule="evenodd">
        <g id="我的项目组空数据" transform="translate(-16.000000, -11.000000)">
            <g id="编组-3备份" transform="translate(16.000000, 11.000000)">
                <path d="M13.2509765,0 L78.0192,0 C81.454853,2.57059207e-16 84.24,2.78514703 84.24,6.2208 L84.24,18.0792 C84.24,21.514853 81.454853,24.3 78.0192,24.3 L13.1897543,24.3 C11.3371437,24.299997 9.56011857,23.5654224 8.24824661,22.2573101 C2.74941554,16.7742379 0,13.4564004 0,12.3037975 C0,11.1520023 2.74556358,7.756182 8.23669075,2.11633671 C9.55411119,0.763236309 11.3624646,3.46914013e-16 13.2509765,0 Z" id="矩形" fill="#03D4FC"></path>
                <path d="M18.1030267,24.3 C16.7127562,24.3 15.3767185,23.7435755 14.3761884,22.7478706 L13.6936232,22.0657494 L13.1999823,21.5686156 L12.7220126,21.0838736 L11.9602211,20.3035076 L11.3821302,19.7039983 L10.966845,19.2688235 L10.567231,18.8460405 L10.3095278,18.5710694 L9.93603231,18.1689394 L9.57820797,17.7792011 L9.23605477,17.4018547 L9.01665882,17.1571747 L8.59876178,16.6843371 L8.30362199,16.3441661 L8.02415334,16.0163868 L7.8465471,15.8047516 L7.67590581,15.5986239 L7.51222946,15.3980036 L7.35551807,15.2028908 L7.13351027,14.9205481 L6.99421125,14.7392039 L6.86187719,14.5633672 L6.73650808,14.393038 L6.61810392,14.2282163 L6.5066647,14.068902 L6.40219044,13.9150952 C6.38535848,13.8899197 6.36881672,13.8649736 6.35256517,13.8402571 L6.25853834,13.6947114 L6.21413677,13.6240039 L6.21413677,13.6240039 L6.13055737,13.4867195 L6.05394291,13.3549425 L5.9842934,13.228673 C5.96223772,13.1875011 5.94134287,13.1472471 5.92160884,13.107911 L5.86588924,12.9926564 L5.81713458,12.8829093 L5.79536911,12.830101 L5.79536911,12.830101 L5.75706188,12.7286151 L5.72571961,12.6326366 C5.6885732,12.508337 5.67,12.398724 5.67,12.3037975 C5.67,12.1377741 5.72681337,11.925126 5.84044012,11.6658532 L5.89261567,11.5518818 C5.92044263,11.4934687 5.95087837,11.4329148 5.98392288,11.3702199 L6.05349028,11.2419756 L6.13001441,11.1080221 L6.17088526,11.0389045 L6.17088526,11.0389045 L6.25784451,10.8963873 L6.30393291,10.8229878 L6.30393291,10.8229878 L6.40132726,10.6719069 L6.50567836,10.5151168 L6.6169862,10.3526176 L6.73525077,10.1844093 L6.92569152,9.92139216 L7.06134795,9.73891097 L7.27787647,9.45448454 L7.51005766,9.15721254 L7.67354104,8.95189478 L7.93181,8.63321349 L8.11268524,8.41362286 L8.30051721,8.18832309 L8.59530905,7.8396688 L8.90575357,7.47816893 L9.23185074,7.10382349 L9.57360058,6.71663248 L9.81012973,6.4513687 L10.1779673,6.0427684 L10.4318883,5.76323177 L10.8258137,5.33322218 L11.3753962,4.73989405 L12.1015059,3.96611996 L12.713699,3.32140954 L13.353719,2.65386255 L13.8519955,2.1382158 L14.3659247,1.60972348 C15.3715865,0.578696551 16.7318857,0 18.1497819,0 L83.8592802,0 C85.2829637,0 86.6488152,0.578696551 87.6585818,1.60972348 L87.6585818,1.60972348 L88.1746086,2.1382158 L88.6749189,2.65386255 L89.3175512,3.32140954 L89.9322431,3.96611996 L90.6613165,4.73989405 L91.2131421,5.33322218 L91.6086754,5.76323177 L91.8636328,6.0427684 L92.2329718,6.4513687 L92.4704664,6.71663248 L92.8136111,7.10382349 L93.1410393,7.47816893 L93.4527509,7.8396688 L93.748746,8.18832309 L93.9373446,8.41362286 L94.1189581,8.63321349 L94.3782812,8.95189478 L94.5424319,9.15721254 L94.7755608,9.45448454 L94.9929731,9.73891097 L95.1291832,9.92139216 L95.3204013,10.1844093 L95.4391486,10.3526176 L95.5509107,10.5151168 L95.6556877,10.6719069 L95.7534796,10.8229878 L95.7534796,10.8229878 L95.7997561,10.8963873 L95.8870703,11.0389045 C95.9010406,11.0621816 95.9147198,11.0852208 95.928108,11.1080221 L95.928108,11.1080221 L96.0049445,11.2419756 L96.0747958,11.3702199 C96.1079752,11.4329148 96.1385352,11.4934687 96.1664757,11.5518818 L96.1664757,11.5518818 L96.2188642,11.6658532 C96.3329547,11.925126 96.39,12.1377741 96.39,12.3037975 C96.39,12.398724 96.371351,12.508337 96.334053,12.6326366 L96.334053,12.6326366 L96.3025828,12.7286151 L96.2641192,12.830101 L96.2641192,12.830101 L96.2422649,12.8829093 L96.1933112,12.9926564 L96.1373642,13.107911 C96.1175496,13.1472471 96.0965695,13.1875011 96.0744238,13.228673 L96.0744238,13.228673 L96.00449,13.3549425 L95.9275628,13.4867195 L95.8436423,13.6240039 L95.8436423,13.6240039 L95.7990595,13.6947114 L95.7046488,13.8402571 C95.688331,13.8649736 95.6717217,13.8899197 95.654821,13.9150952 L95.654821,13.9150952 L95.5499203,14.068902 L95.4380263,14.2282163 L95.3191388,14.393038 L95.193258,14.5633672 L95.0603838,14.7392039 L94.9205162,14.9205481 L94.6976023,15.2028908 L94.5402512,15.3980036 L94.3759068,15.5986239 L94.204569,15.8047516 L94.0262379,16.0163868 L93.7456285,16.3441661 L93.4492841,16.6843371 L93.0296813,17.1571747 L92.8093899,17.4018547 L92.4658402,17.7792011 L92.1065553,18.1689394 L91.7315354,18.5710694 L91.4727803,18.8460405 L91.0715352,19.2688235 L90.654555,19.7039983 L90.0741045,20.3035076 L89.3092037,21.0838736 L88.829283,21.5686156 L88.3336273,22.0657494 L87.6482761,22.7478706 C86.6436623,23.7435755 85.3021713,24.3 83.9062262,24.3 L83.9062262,24.3 L18.1030267,24.3 Z" id="形状结合" fill="#357EFF"></path>
                <g id="编组-2" transform="translate(20.736000, 3.888000)" fill-rule="nonzero">
                    <path d="M38.4111166,0.81 C42.4482272,0.81 45.7209521,4.07964656 45.7209521,8.11296 C45.7209521,12.1059403 42.5133545,15.3504507 38.5319981,15.4149416 L38.4111166,15.41592 L32.4804954,15.41592 C31.8711202,15.41592 31.377124,14.9223884 31.377124,14.3135864 C31.377124,13.7232329 31.8416346,13.2412697 32.425426,13.2126019 L32.4804954,13.2112528 L38.4111166,13.2112528 C41.2294769,13.2112528 43.5142093,10.9286694 43.5142093,8.11296 C43.5142093,5.32819248 41.2794149,3.06489822 38.5038339,3.01549177 L38.4111166,3.01466717 L32.4804954,3.01466717 C31.8711202,3.01466717 31.377124,2.52113561 31.377124,1.91233358 C31.377124,1.3219801 31.8416346,0.840016853 32.425426,0.811349065 L32.4804954,0.81 L38.4111166,0.81 Z" id="矩形" fill="#FFFFFF"></path>
                    <path d="M61.884,7.0956 C62.5281849,7.0956 63.0504,7.61781507 63.0504,8.262 C63.0504,8.87397569 62.5791009,9.37587357 61.9796629,9.42453342 L61.884,9.4284 L51.516,9.4284 C50.8718151,9.4284 50.3496,8.90618493 50.3496,8.262 C50.3496,7.65002431 50.8208991,7.14812643 51.4203371,7.09946658 L51.516,7.0956 L61.884,7.0956 Z" id="直线" fill="#01D8FF"></path>
                    <path d="M57.996,1.2636 C58.6401849,1.2636 59.1624,1.78581507 59.1624,2.43 C59.1624,3.04197569 58.6911009,3.54387357 58.0916629,3.59253342 L57.996,3.5964 L50.22,3.5964 C49.5758151,3.5964 49.0536,3.07418493 49.0536,2.43 C49.0536,1.81802431 49.5248991,1.31612643 50.1243371,1.26746658 L50.22,1.2636 L57.996,1.2636 Z" id="直线备份" fill="#01D8FF"></path>
                    <path d="M57.996,12.9276 C58.6401849,12.9276 59.1624,13.4498151 59.1624,14.094 C59.1624,14.7059757 58.6911009,15.2078736 58.0916629,15.2565334 L57.996,15.2604 L50.22,15.2604 C49.5758151,15.2604 49.0536,14.7381849 49.0536,14.094 C49.0536,13.4820243 49.5248991,12.9801264 50.1243371,12.9314666 L50.22,12.9276 L57.996,12.9276 Z" id="直线备份-2" fill="#01D8FF"></path>
                    <path d="M7.03399263,0.81 C11.0711033,0.81 14.3438281,4.07964656 14.3438281,8.11296 C14.3438281,12.1059403 11.1362305,15.3504507 7.15487412,15.4149416 L7.03399263,15.41592 L1.10337139,15.41592 C0.493996199,15.41592 -1.29496414e-14,14.9223884 -1.29496414e-14,14.3135864 C-1.29496414e-14,13.7232329 0.464510659,13.2412697 1.04830203,13.2126019 L1.10337139,13.2112528 L7.03399263,13.2112528 C9.85235289,13.2112528 12.1370853,10.9286694 12.1370853,8.11296 C12.1370853,5.32819248 9.90229089,3.06489822 7.12670996,3.01549177 L7.03399263,3.01466717 L1.10337139,3.01466717 C0.493996199,3.01466717 -1.29496414e-14,2.52113561 -1.29496414e-14,1.91233358 C-1.29496414e-14,1.3219801 0.464510659,0.840016853 1.04830203,0.811349065 L1.10337139,0.81 L7.03399263,0.81 Z" id="矩形备份" fill="#FFFFFF" transform="translate(7.171914, 8.112960) scale(-1, 1) translate(-7.171914, -8.112960) "></path>
                    <path d="M23.9352992,1.10808 C27.8802664,1.10808 31.0782942,4.31099908 31.0782942,8.262 C31.0782942,12.2130009 27.8802664,15.41592 23.9352992,15.41592 L21.1879934,15.41592 C17.2430262,15.41592 14.0449983,12.2130009 14.0449983,8.262 C14.0449983,4.31099908 17.2430262,1.10808 21.1879934,1.10808 L23.9352992,1.10808 Z M23.9352992,3.30928615 L21.1879934,3.30928615 C18.4568622,3.30928615 16.242843,5.52669167 16.242843,8.262 C16.242843,10.966916 18.4079351,13.1653742 21.0971495,13.2138949 L21.1879934,13.2147138 L23.9352992,13.2147138 C26.6664303,13.2147138 28.8804496,10.9973083 28.8804496,8.262 C28.8804496,5.55708399 26.7153574,3.35862577 24.026143,3.31010508 L23.9352992,3.30928615 Z" id="矩形" fill="#FFFFFF"></path>
                </g>
            </g>
        </g>
    </g>
</svg>